<svg width="455" height="61" viewBox="0 0 455 61" fill="none" xmlns="http://www.w3.org/2000/svg">
<path d="M3.488 5.263L0.584 4.9V3.481H17.876L18.206 8.893H16.391L15.5 5.164L6.194 4.999V14.767L12.794 14.668L13.355 11.995H14.873V19.288H13.355L12.794 16.483L6.194 16.351V26.284L11.375 26.581V28H0.782V26.581L3.488 26.284V5.263ZM23.5582 3.052L20.7532 2.755V1.534L25.5712 0.972998H25.6042L26.2312 1.402V26.35L29.3332 26.581V28H20.6542V26.581L23.5582 26.317V3.052ZM35.5735 6.22C34.3855 6.22 33.7915 5.593 33.7915 4.339C33.7915 3.701 33.9785 3.184 34.3525 2.788C34.7265 2.37 35.2325 2.161 35.8705 2.161C36.5305 2.161 37.0035 2.348 37.2895 2.722C37.5755 3.074 37.7185 3.514 37.7185 4.042C37.7185 4.724 37.5315 5.263 37.1575 5.659C36.8055 6.033 36.2885 6.22 35.6065 6.22H35.5735ZM34.5175 11.863L31.9435 11.302V9.817L36.4645 9.289H36.5305L37.1905 9.817V26.35L40.0615 26.581V28H31.6135V26.581L34.5175 26.317V11.863ZM50.4308 28.363C47.8788 28.363 45.9098 27.494 44.5238 25.756C43.1598 23.996 42.4778 21.664 42.4778 18.76C42.4778 16.89 42.8408 15.229 43.5668 13.777C44.2928 12.325 45.2938 11.203 46.5698 10.411C47.8678 9.597 49.3198 9.19 50.9258 9.19C52.8838 9.19 54.4018 9.751 55.4798 10.873C56.5798 11.995 57.1738 13.612 57.2618 15.724C57.2618 17.088 57.1958 18.056 57.0638 18.628H45.3158C45.3158 20.938 45.8328 22.83 46.8668 24.304C47.9228 25.756 49.3968 26.482 51.2888 26.482C52.2128 26.482 53.1588 26.317 54.1268 25.987C55.0948 25.657 55.8428 25.261 56.3708 24.799L56.8988 26.02C56.2608 26.68 55.3258 27.241 54.0938 27.703C52.8838 28.143 51.6628 28.363 50.4308 28.363ZM54.2918 17.077C54.3578 16.615 54.3908 16.131 54.3908 15.625C54.3688 14.173 54.0168 13.018 53.3348 12.16C52.6748 11.302 51.6518 10.873 50.2658 10.873C47.2518 10.873 45.6128 12.941 45.3488 17.077H54.2918ZM62.939 25.393C63.181 25.767 63.687 26.097 64.457 26.383C65.227 26.669 66.052 26.812 66.932 26.812C69.616 26.812 70.958 25.822 70.958 23.842C70.958 22.94 70.584 22.214 69.836 21.664C69.088 21.092 67.812 20.465 66.008 19.783C64.226 19.145 62.928 18.386 62.114 17.506C61.3 16.626 60.893 15.449 60.893 13.975C60.893 13.029 61.179 12.204 61.751 11.5C62.345 10.796 63.126 10.257 64.094 9.883C65.084 9.487 66.151 9.289 67.295 9.289C68.417 9.289 69.352 9.388 70.1 9.586C70.87 9.784 71.629 10.026 72.377 10.312V14.239H70.76L70.166 11.83C70.012 11.544 69.616 11.302 68.978 11.104C68.362 10.906 67.68 10.807 66.932 10.807C65.876 10.807 65.018 11.049 64.358 11.533C63.698 11.995 63.368 12.622 63.368 13.414C63.368 14.118 63.533 14.701 63.863 15.163C64.193 15.625 64.6 15.999 65.084 16.285C65.568 16.549 66.239 16.857 67.097 17.209L67.724 17.473C68.978 17.957 69.99 18.419 70.76 18.859C71.53 19.277 72.168 19.838 72.674 20.542C73.18 21.224 73.433 22.082 73.433 23.116C73.433 24.744 72.806 26.031 71.552 26.977C70.32 27.901 68.67 28.363 66.602 28.363C65.656 28.363 64.578 28.209 63.368 27.901C62.158 27.593 61.256 27.285 60.662 26.977V22.819H62.444L62.939 25.393ZM84.6231 28.363C82.0711 28.363 80.1021 27.494 78.7161 25.756C77.3521 23.996 76.6701 21.664 76.6701 18.76C76.6701 16.89 77.0331 15.229 77.7591 13.777C78.4851 12.325 79.4861 11.203 80.7621 10.411C82.0601 9.597 83.5121 9.19 85.1181 9.19C87.0761 9.19 88.5941 9.751 89.6721 10.873C90.7721 11.995 91.3661 13.612 91.4541 15.724C91.4541 17.088 91.3881 18.056 91.2561 18.628H79.5081C79.5081 20.938 80.0251 22.83 81.0591 24.304C82.1151 25.756 83.5891 26.482 85.4811 26.482C86.4051 26.482 87.3511 26.317 88.3191 25.987C89.2871 25.657 90.0351 25.261 90.5631 24.799L91.0911 26.02C90.4531 26.68 89.5181 27.241 88.2861 27.703C87.0761 28.143 85.8551 28.363 84.6231 28.363ZM88.4841 17.077C88.5501 16.615 88.5831 16.131 88.5831 15.625C88.5611 14.173 88.2091 13.018 87.5271 12.16C86.8671 11.302 85.8441 10.873 84.4581 10.873C81.4441 10.873 79.8051 12.941 79.5411 17.077H88.4841ZM96.5044 11.863L93.9634 11.302V9.817L98.1544 9.289H98.2534L98.8804 9.817V11.269L98.8474 12.094C99.6614 11.39 100.739 10.741 102.081 10.147C103.423 9.553 104.666 9.256 105.81 9.256C107.218 9.256 108.296 9.531 109.044 10.081C109.814 10.609 110.342 11.434 110.628 12.556C110.936 13.656 111.09 15.141 111.09 17.011V26.35L113.565 26.581V28H106.206V26.581L108.417 26.35V16.978C108.417 15.592 108.318 14.503 108.12 13.711C107.944 12.919 107.581 12.325 107.031 11.929C106.503 11.511 105.722 11.302 104.688 11.302C103.808 11.302 102.851 11.522 101.817 11.962C100.805 12.402 99.9254 12.919 99.1774 13.513V26.317L101.586 26.581V28H94.2934V26.581L96.5044 26.317V11.863ZM126.819 5.263L124.047 4.9V3.481H128.172C128.898 3.481 129.833 3.437 130.977 3.349C132.033 3.261 132.814 3.217 133.32 3.217C136.18 3.217 138.248 3.69 139.524 4.636C140.822 5.582 141.471 6.957 141.471 8.761C141.471 10.301 141.042 11.643 140.184 12.787C139.348 13.909 138.149 14.624 136.587 14.932C138.655 14.866 140.272 15.361 141.438 16.417C142.626 17.473 143.22 18.892 143.22 20.674C143.22 22.874 142.439 24.678 140.877 26.086C139.337 27.494 136.807 28.198 133.287 28.198C132.869 28.198 132.198 28.176 131.274 28.132C130.13 28.044 129.052 28 128.04 28H123.981V26.581L126.819 26.284V5.263ZM129.525 14.371C129.877 14.393 130.57 14.404 131.604 14.404H133.584C135.256 14.404 136.532 13.975 137.412 13.117C138.292 12.259 138.732 11.016 138.732 9.388C138.732 7.782 138.292 6.605 137.412 5.857C136.554 5.109 135.069 4.735 132.957 4.735C132.165 4.735 131.351 4.779 130.515 4.867C129.987 4.911 129.657 4.933 129.525 4.933V14.371ZM129.525 26.35C130.097 26.526 131.34 26.614 133.254 26.614C135.718 26.614 137.5 26.152 138.6 25.228C139.7 24.282 140.25 22.929 140.25 21.169C140.25 19.409 139.777 18.133 138.831 17.341C137.885 16.527 136.356 16.12 134.244 16.12H131.802C130.614 16.12 129.855 16.131 129.525 16.153V26.35ZM145.988 18.727C145.988 16.813 146.384 15.13 147.176 13.678C147.99 12.226 149.046 11.115 150.344 10.345C151.664 9.575 153.039 9.19 154.469 9.19C157.241 9.19 159.287 10.092 160.607 11.896C161.949 13.7 162.62 16.01 162.62 18.826C162.62 20.74 162.213 22.423 161.399 23.875C160.607 25.327 159.551 26.438 158.231 27.208C156.933 27.978 155.569 28.363 154.139 28.363C151.367 28.363 149.31 27.461 147.968 25.657C146.648 23.853 145.988 21.543 145.988 18.727ZM154.304 26.647C155.998 26.647 157.307 25.998 158.231 24.7C159.155 23.402 159.617 21.51 159.617 19.024C159.617 16.648 159.188 14.701 158.33 13.183C157.472 11.665 156.141 10.906 154.337 10.906C152.643 10.906 151.323 11.555 150.377 12.853C149.453 14.151 148.991 16.043 148.991 18.529C148.991 20.927 149.42 22.885 150.278 24.403C151.158 25.899 152.5 26.647 154.304 26.647ZM150.575 6.154C150.069 6.154 149.662 5.978 149.354 5.626C149.046 5.274 148.892 4.823 148.892 4.273C148.892 3.679 149.057 3.173 149.387 2.755C149.739 2.315 150.223 2.095 150.839 2.095C151.367 2.095 151.785 2.293 152.093 2.689C152.423 3.063 152.588 3.503 152.588 4.009C152.588 4.625 152.412 5.142 152.06 5.56C151.708 5.956 151.213 6.154 150.575 6.154ZM157.736 6.154C157.252 6.154 156.856 5.978 156.548 5.626C156.24 5.252 156.086 4.801 156.086 4.273C156.086 3.679 156.251 3.173 156.581 2.755C156.933 2.315 157.417 2.095 158.033 2.095C158.561 2.095 158.979 2.293 159.287 2.689C159.617 3.063 159.782 3.503 159.782 4.009C159.782 4.625 159.606 5.142 159.254 5.56C158.902 5.956 158.396 6.154 157.736 6.154ZM165.251 18.958C165.251 17.176 165.592 15.548 166.274 14.074C166.978 12.578 168.012 11.39 169.376 10.51C170.762 9.63 172.445 9.19 174.425 9.19C175.283 9.19 176.119 9.3 176.933 9.52C177.747 9.718 178.451 9.938 179.045 10.18L178.913 14.899H177.263L176.57 11.731C176.438 11.071 175.492 10.741 173.732 10.741C172.016 10.741 170.641 11.401 169.607 12.721C168.595 14.041 168.089 15.845 168.089 18.133C168.089 20.861 168.639 22.929 169.739 24.337C170.839 25.745 172.269 26.449 174.029 26.449C174.953 26.449 175.844 26.295 176.702 25.987C177.582 25.679 178.308 25.327 178.88 24.931L179.408 26.02C178.77 26.658 177.89 27.208 176.768 27.67C175.646 28.132 174.535 28.363 173.435 28.363C171.697 28.363 170.212 27.956 168.98 27.142C167.748 26.306 166.813 25.184 166.175 23.776C165.559 22.346 165.251 20.74 165.251 18.958ZM184.285 3.052L181.579 2.755V1.534L186.298 0.972998H186.331L186.958 1.402V17.803L186.892 19.882L195.076 11.467L192.601 11.005V9.685H200.191V11.005L197.65 11.467L192.304 16.714L198.871 26.35L201.049 26.581V28H193.492V26.581L195.769 26.317L190.588 18.199L186.892 21.829L186.958 23.512V26.317L189.499 26.581V28H182.107V26.581L184.285 26.317V3.052ZM201.546 26.581L203.658 26.317V11.863L201.117 11.302V9.817L205.308 9.289L206.034 9.817V11.269L206.001 12.094C206.815 11.39 207.882 10.741 209.202 10.147C210.522 9.553 211.721 9.256 212.799 9.256C213.987 9.256 214.933 9.454 215.637 9.85C216.363 10.246 216.913 10.862 217.287 11.698C217.969 11.126 218.959 10.576 220.257 10.048C221.577 9.52 222.787 9.256 223.887 9.256C225.273 9.256 226.34 9.52 227.088 10.048C227.858 10.576 228.397 11.39 228.705 12.49C229.013 13.59 229.167 15.075 229.167 16.945V26.317L231.675 26.581V28H224.283V26.581L226.527 26.317V17.044C226.527 15.658 226.428 14.558 226.23 13.744C226.032 12.93 225.647 12.314 225.075 11.896C224.503 11.478 223.667 11.269 222.567 11.269C221.753 11.269 220.895 11.456 219.993 11.83C219.113 12.182 218.354 12.589 217.716 13.051C217.936 14.063 218.046 15.383 218.046 17.011V26.317L220.554 26.581V28H212.997V26.581L215.373 26.317V16.978C215.373 15.57 215.285 14.47 215.109 13.678C214.955 12.886 214.614 12.292 214.086 11.896C213.558 11.5 212.777 11.302 211.743 11.302C210.885 11.302 209.95 11.522 208.938 11.962C207.948 12.38 207.079 12.886 206.331 13.48V26.317L208.674 26.581V28H201.546V26.581ZM234.261 23.182C234.261 21.048 235.317 19.508 237.429 18.562C239.541 17.594 242.17 17.077 245.316 17.011V15.988C245.316 14.866 245.195 13.986 244.953 13.348C244.733 12.688 244.337 12.215 243.765 11.929C243.193 11.621 242.39 11.467 241.356 11.467C240.234 11.467 239.211 11.643 238.287 11.995C237.385 12.325 236.505 12.732 235.647 13.216L234.921 11.764C235.163 11.544 235.669 11.236 236.439 10.84C237.209 10.444 238.089 10.092 239.079 9.784C240.069 9.476 241.026 9.322 241.95 9.322C243.446 9.322 244.623 9.531 245.481 9.949C246.361 10.367 246.988 11.038 247.362 11.962C247.758 12.886 247.956 14.129 247.956 15.691V26.581H250.002V27.802C248.792 28.132 247.769 28.297 246.933 28.297C246.405 28.297 246.042 28.209 245.844 28.033C245.646 27.879 245.547 27.505 245.547 26.911V25.69C244.755 26.394 243.886 27.021 242.94 27.571C242.016 28.099 240.96 28.363 239.772 28.363C238.188 28.363 236.868 27.923 235.812 27.043C234.778 26.163 234.261 24.876 234.261 23.182ZM240.762 26.416C241.378 26.416 242.115 26.218 242.973 25.822C243.831 25.426 244.612 24.953 245.316 24.403V18.562C242.654 18.584 240.63 18.98 239.244 19.75C237.88 20.52 237.198 21.554 237.198 22.852C237.198 24.106 237.517 25.019 238.155 25.591C238.793 26.141 239.662 26.416 240.762 26.416ZM254.511 11.863L251.97 11.302V9.817L256.161 9.289H256.26L256.887 9.817V11.269L256.854 12.094C257.668 11.39 258.746 10.741 260.088 10.147C261.43 9.553 262.673 9.256 263.817 9.256C265.225 9.256 266.303 9.531 267.051 10.081C267.821 10.609 268.349 11.434 268.635 12.556C268.943 13.656 269.097 15.141 269.097 17.011V26.35L271.572 26.581V28H264.213V26.581L266.424 26.35V16.978C266.424 15.592 266.325 14.503 266.127 13.711C265.951 12.919 265.588 12.325 265.038 11.929C264.51 11.511 263.729 11.302 262.695 11.302C261.815 11.302 260.858 11.522 259.824 11.962C258.812 12.402 257.932 12.919 257.184 13.513V26.317L259.593 26.581V28H252.3V26.581L254.511 26.317V11.863ZM276.071 11.863L273.53 11.302V9.817L277.721 9.289H277.82L278.447 9.817V11.269L278.414 12.094C279.228 11.39 280.306 10.741 281.648 10.147C282.99 9.553 284.233 9.256 285.377 9.256C286.785 9.256 287.863 9.531 288.611 10.081C289.381 10.609 289.909 11.434 290.195 12.556C290.503 13.656 290.657 15.141 290.657 17.011V26.35L293.132 26.581V28H285.773V26.581L287.984 26.35V16.978C287.984 15.592 287.885 14.503 287.687 13.711C287.511 12.919 287.148 12.325 286.598 11.929C286.07 11.511 285.289 11.302 284.255 11.302C283.375 11.302 282.418 11.522 281.384 11.962C280.372 12.402 279.492 12.919 278.744 13.513V26.317L281.153 26.581V28H273.86V26.581L276.071 26.317V11.863Z" fill="#930C06"/>
<path d="M1.8667 58H0.911133V44.4365H8.33301V45.2993H1.8667V51.0791H7.98047V51.9326H1.8667V58ZM10.4668 58V44.4365H11.4224V57.1279H17.8794V58H10.4668ZM20.208 58V44.4365H21.1636V58H20.208ZM32.4077 58H24.9951V44.4365H32.4077V45.2993H25.9507V50.439H32.0459V51.3018H25.9507V57.1372H32.4077V58ZM42.9653 54.5024C42.9653 55.3127 42.7612 55.993 42.353 56.5435C41.9448 57.0877 41.3913 57.499 40.6924 57.7773C39.9935 58.0495 39.2018 58.1855 38.3174 58.1855C37.7669 58.1855 37.266 58.1577 36.8145 58.1021C36.3691 58.0526 35.964 57.9845 35.5991 57.8979C35.2404 57.8114 34.9126 57.7124 34.6157 57.6011V56.6455C35.0981 56.8311 35.6548 56.995 36.2856 57.1372C36.9227 57.2733 37.6154 57.3413 38.3638 57.3413C39.0688 57.3413 39.6935 57.2393 40.2378 57.0352C40.7882 56.8311 41.2212 56.5218 41.5366 56.1074C41.8521 55.693 42.0098 55.1704 42.0098 54.5396C42.0098 53.9829 41.8768 53.5283 41.6108 53.1758C41.3511 52.8171 40.9583 52.5109 40.4326 52.2573C39.9069 51.9976 39.2451 51.7347 38.4473 51.4688C37.8906 51.277 37.3835 51.076 36.9258 50.8657C36.4743 50.6493 36.0877 50.4019 35.7661 50.1235C35.4445 49.839 35.1971 49.4989 35.0239 49.103C34.8569 48.701 34.7734 48.2279 34.7734 47.6836C34.7734 46.9352 34.9621 46.3075 35.3394 45.8003C35.7228 45.2869 36.2393 44.9004 36.8887 44.6406C37.5443 44.3747 38.2803 44.2417 39.0967 44.2417C39.7461 44.2417 40.3615 44.3035 40.9429 44.4272C41.5304 44.5448 42.0964 44.7241 42.6406 44.9653L42.3066 45.791C41.7624 45.556 41.2181 45.3828 40.6738 45.2715C40.1296 45.1602 39.5915 45.1045 39.0596 45.1045C38.4225 45.1045 37.8535 45.2004 37.3525 45.3921C36.8577 45.5776 36.465 45.859 36.1743 46.2363C35.8836 46.6136 35.7383 47.0898 35.7383 47.665C35.7383 48.2588 35.8713 48.7381 36.1372 49.103C36.4093 49.4679 36.7928 49.771 37.2876 50.0122C37.7886 50.2534 38.3792 50.4884 39.0596 50.7173C39.8636 50.9894 40.5563 51.277 41.1377 51.5801C41.7191 51.877 42.1675 52.2542 42.4829 52.7119C42.8045 53.1696 42.9653 53.7664 42.9653 54.5024ZM53.2817 58H45.8691V44.4365H53.2817V45.2993H46.8247V50.439H52.9199V51.3018H46.8247V57.1372H53.2817V58ZM66.2422 58H65.2681L57.2524 46.0044H57.2061C57.2184 46.3384 57.2277 46.6785 57.2339 47.0249C57.2463 47.3651 57.2555 47.7176 57.2617 48.0825C57.2741 48.4412 57.2803 48.8123 57.2803 49.1958V58H56.3711V44.4365H57.3545L65.3423 56.395H65.3887C65.3825 56.1229 65.3732 55.8075 65.3608 55.4487C65.3547 55.09 65.3454 54.722 65.333 54.3447C65.3268 53.9674 65.3237 53.6118 65.3237 53.2778V44.4365H66.2422V58ZM68.9326 53.2964V52.4336H73.5342V53.2964H68.9326ZM77.0596 55.792L77.1431 56.0146C77.0441 56.4785 76.9204 56.9671 76.772 57.4805C76.6297 57.9938 76.472 58.5041 76.2988 59.0112C76.1318 59.5246 75.9525 60.0039 75.7607 60.4492H75.0371C75.1979 59.8864 75.3433 59.3359 75.4731 58.7979C75.603 58.266 75.7174 57.7495 75.8164 57.2485C75.9154 56.7414 75.9958 56.2559 76.0576 55.792H77.0596ZM94.3525 58H93.1929L87.9419 50.8472L86.1792 52.5449V58H85.2236V44.4365H86.1792V51.5708C86.408 51.311 86.6462 51.0513 86.8936 50.7915C87.1471 50.5256 87.4007 50.2565 87.6543 49.9844L93.0073 44.4365H94.1948L88.647 50.1792L94.3525 58ZM103.676 58H96.2637V44.4365H103.676V45.2993H97.2192V50.439H103.314V51.3018H97.2192V57.1372H103.676V58ZM110.059 44.4365C111.135 44.4365 112.032 44.554 112.75 44.7891C113.473 45.0241 114.017 45.4106 114.382 45.9487C114.747 46.4868 114.93 47.2135 114.93 48.1289C114.93 48.8154 114.803 49.4061 114.549 49.9009C114.302 50.3895 113.959 50.7915 113.52 51.1069C113.08 51.4224 112.573 51.6636 111.998 51.8306L115.718 58H114.586L111.089 52.0996H107.721V58H106.766V44.4365H110.059ZM109.966 45.2808H107.721V51.2554H110.421C111.528 51.2554 112.391 50.9894 113.009 50.4575C113.634 49.9256 113.946 49.1618 113.946 48.166C113.946 47.0713 113.618 46.3167 112.963 45.9023C112.307 45.488 111.308 45.2808 109.966 45.2808ZM126.554 58L124.708 53.2036H119.012L117.128 58H116.154L121.489 44.3901H122.361L127.556 58H126.554ZM124.402 52.3408L122.528 47.2568C122.478 47.127 122.417 46.96 122.342 46.7559C122.274 46.5518 122.2 46.3353 122.12 46.1064C122.045 45.8776 121.971 45.6611 121.897 45.457C121.835 45.6735 121.767 45.89 121.693 46.1064C121.619 46.3229 121.548 46.5332 121.479 46.7373C121.411 46.9352 121.347 47.1146 121.285 47.2754L119.336 52.3408H124.402ZM135.349 58L130.367 45.4756H130.321C130.333 45.7044 130.342 45.9456 130.349 46.1992C130.361 46.4466 130.37 46.7064 130.376 46.9785C130.383 47.2507 130.386 47.5352 130.386 47.832V58H129.477V44.4365H130.924L135.729 56.5156H135.785L140.628 44.4365H142.038V58H141.101V47.7207C141.101 47.4795 141.104 47.2321 141.11 46.9785C141.117 46.7249 141.123 46.4744 141.129 46.2271C141.141 45.9735 141.154 45.7292 141.166 45.4941H141.11L136.11 58H135.349ZM145.879 58V44.4365H146.834V58H145.879ZM159.795 58H158.635L153.384 50.8472L151.622 52.5449V58H150.666V44.4365H151.622V51.5708C151.85 51.311 152.089 51.0513 152.336 50.7915C152.59 50.5256 152.843 50.2565 153.097 49.9844L158.45 44.4365H159.637L154.089 50.1792L159.795 58ZM160.556 53.2964V52.4336H165.157V53.2964H160.556ZM176.633 44.2231C177.246 44.2231 177.784 44.3376 178.248 44.5664C178.711 44.7891 179.07 45.1107 179.324 45.5312C179.583 45.9518 179.713 46.4528 179.713 47.0342C179.713 47.8815 179.432 48.5804 178.869 49.1309C178.312 49.6813 177.58 50.1885 176.67 50.6523L180.929 54.9106C181.287 54.4777 181.6 53.9767 181.866 53.4077C182.132 52.8387 182.342 52.2233 182.497 51.5615H183.452C183.26 52.3532 183.004 53.0799 182.682 53.7417C182.361 54.4035 181.977 55.0003 181.532 55.5322L183.972 58H182.71L180.919 56.1538C180.524 56.5496 180.097 56.9022 179.639 57.2114C179.188 57.5207 178.681 57.7619 178.118 57.9351C177.555 58.1021 176.905 58.1855 176.169 58.1855C175.334 58.1855 174.602 58.0464 173.971 57.7681C173.346 57.4897 172.857 57.0815 172.505 56.5435C172.152 55.9992 171.976 55.3343 171.976 54.5488C171.976 53.8623 172.106 53.284 172.366 52.814C172.625 52.3377 173 51.9202 173.488 51.5615C173.977 51.1966 174.564 50.8379 175.251 50.4854C174.874 50.0957 174.543 49.7308 174.258 49.3906C173.974 49.0443 173.751 48.6886 173.59 48.3237C173.436 47.9588 173.358 47.5506 173.358 47.0991C173.358 46.5116 173.494 46.0044 173.767 45.5776C174.039 45.1447 174.419 44.8107 174.908 44.5757C175.403 44.3407 175.978 44.2231 176.633 44.2231ZM175.845 51.0977C175.226 51.4069 174.701 51.7131 174.268 52.0161C173.841 52.3192 173.516 52.6686 173.293 53.0645C173.071 53.4541 172.959 53.9396 172.959 54.521C172.959 55.4054 173.253 56.0981 173.841 56.5991C174.435 57.0939 175.217 57.3413 176.188 57.3413C177.153 57.3413 177.954 57.1774 178.591 56.8496C179.228 56.5156 179.803 56.0858 180.316 55.5601L175.845 51.0977ZM176.605 45.0303C175.894 45.0303 175.331 45.2158 174.917 45.5869C174.503 45.958 174.295 46.4621 174.295 47.0991C174.295 47.631 174.447 48.1196 174.75 48.5649C175.053 49.0041 175.483 49.5081 176.04 50.0771C176.924 49.6504 177.601 49.2082 178.071 48.7505C178.541 48.2866 178.776 47.7145 178.776 47.0342C178.776 46.4219 178.578 45.9364 178.183 45.5776C177.787 45.2127 177.261 45.0303 176.605 45.0303ZM198.732 54.5024C198.732 55.3127 198.528 55.993 198.12 56.5435C197.711 57.0877 197.158 57.499 196.459 57.7773C195.76 58.0495 194.968 58.1855 194.084 58.1855C193.534 58.1855 193.033 58.1577 192.581 58.1021C192.136 58.0526 191.731 57.9845 191.366 57.8979C191.007 57.8114 190.679 57.7124 190.382 57.6011V56.6455C190.865 56.8311 191.421 56.995 192.052 57.1372C192.689 57.2733 193.382 57.3413 194.13 57.3413C194.835 57.3413 195.46 57.2393 196.004 57.0352C196.555 56.8311 196.988 56.5218 197.303 56.1074C197.619 55.693 197.776 55.1704 197.776 54.5396C197.776 53.9829 197.643 53.5283 197.377 53.1758C197.118 52.8171 196.725 52.5109 196.199 52.2573C195.674 51.9976 195.012 51.7347 194.214 51.4688C193.657 51.277 193.15 51.076 192.692 50.8657C192.241 50.6493 191.854 50.4019 191.533 50.1235C191.211 49.839 190.964 49.4989 190.791 49.103C190.624 48.701 190.54 48.2279 190.54 47.6836C190.54 46.9352 190.729 46.3075 191.106 45.8003C191.489 45.2869 192.006 44.9004 192.655 44.6406C193.311 44.3747 194.047 44.2417 194.863 44.2417C195.513 44.2417 196.128 44.3035 196.709 44.4272C197.297 44.5448 197.863 44.7241 198.407 44.9653L198.073 45.791C197.529 45.556 196.985 45.3828 196.44 45.2715C195.896 45.1602 195.358 45.1045 194.826 45.1045C194.189 45.1045 193.62 45.2004 193.119 45.3921C192.624 45.5776 192.232 45.859 191.941 46.2363C191.65 46.6136 191.505 47.0898 191.505 47.665C191.505 48.2588 191.638 48.7381 191.904 49.103C192.176 49.4679 192.559 49.771 193.054 50.0122C193.555 50.2534 194.146 50.4884 194.826 50.7173C195.63 50.9894 196.323 51.277 196.904 51.5801C197.486 51.877 197.934 52.2542 198.25 52.7119C198.571 53.1696 198.732 53.7664 198.732 54.5024ZM205.18 58H204.215V45.2993H199.817V44.4365H209.577V45.2993H205.18V58ZM219.012 58H211.6V44.4365H219.012V45.2993H212.555V50.439H218.65V51.3018H212.555V57.1372H219.012V58ZM222.102 58V44.4365H223.057V58H222.102ZM236.76 58H235.786L227.77 46.0044H227.724C227.736 46.3384 227.745 46.6785 227.751 47.0249C227.764 47.3651 227.773 47.7176 227.779 48.0825C227.792 48.4412 227.798 48.8123 227.798 49.1958V58H226.889V44.4365H227.872L235.86 56.395H235.906C235.9 56.1229 235.891 55.8075 235.878 55.4487C235.872 55.09 235.863 54.722 235.851 54.3447C235.844 53.9674 235.841 53.6118 235.841 53.2778V44.4365H236.76V58ZM240.601 44.4365H244.321C245.997 44.4365 247.222 44.6994 247.995 45.2251C248.774 45.7508 249.164 46.5889 249.164 47.7393C249.164 48.2588 249.062 48.7319 248.857 49.1587C248.66 49.5854 248.363 49.9442 247.967 50.2349C247.577 50.5194 247.095 50.7142 246.52 50.8193V50.8843C247.206 50.9894 247.772 51.1812 248.217 51.4595C248.669 51.7316 249.003 52.0934 249.219 52.5449C249.442 52.9902 249.553 53.5221 249.553 54.1406C249.553 55.0312 249.349 55.7611 248.941 56.3301C248.539 56.8991 247.979 57.3197 247.262 57.5918C246.544 57.8639 245.715 58 244.775 58H240.601V44.4365ZM241.556 50.4668H244.562C245.836 50.4668 246.758 50.2441 247.327 49.7988C247.896 49.3535 248.18 48.6948 248.18 47.8228C248.18 46.9198 247.874 46.2703 247.262 45.8745C246.649 45.4787 245.669 45.2808 244.321 45.2808H241.556V50.4668ZM241.556 51.3018V57.1558H244.748C246.003 57.1558 246.949 56.9022 247.586 56.395C248.223 55.8817 248.542 55.1178 248.542 54.1035C248.542 53.4355 248.394 52.8975 248.097 52.4893C247.8 52.0749 247.354 51.7749 246.761 51.5894C246.173 51.3976 245.44 51.3018 244.562 51.3018H241.556ZM263.924 51.1997C263.924 52.2326 263.797 53.1758 263.543 54.0293C263.29 54.8828 262.91 55.6188 262.402 56.2373C261.895 56.8558 261.261 57.3351 260.5 57.6753C259.746 58.0155 258.865 58.1855 257.856 58.1855C256.842 58.1855 255.955 58.0155 255.194 57.6753C254.433 57.3351 253.799 56.8558 253.292 56.2373C252.791 55.6126 252.414 54.8735 252.16 54.02C251.907 53.1603 251.78 52.214 251.78 51.1812C251.78 49.8081 252.012 48.599 252.476 47.5537C252.946 46.5085 253.635 45.6921 254.544 45.1045C255.46 44.5169 256.589 44.2231 257.931 44.2231C259.217 44.2231 260.306 44.5046 261.196 45.0674C262.093 45.624 262.77 46.425 263.228 47.4702C263.692 48.5093 263.924 49.7524 263.924 51.1997ZM252.782 51.1904C252.782 52.4027 252.964 53.4727 253.329 54.4004C253.694 55.3219 254.254 56.0425 255.008 56.562C255.763 57.0815 256.715 57.3413 257.866 57.3413C259.028 57.3413 259.984 57.0846 260.732 56.5713C261.481 56.0579 262.034 55.3405 262.393 54.4189C262.752 53.4974 262.931 52.4243 262.931 51.1997C262.931 49.2638 262.507 47.7609 261.66 46.6909C260.819 45.6209 259.576 45.0859 257.931 45.0859C256.774 45.0859 255.812 45.3426 255.045 45.856C254.285 46.3693 253.716 47.0837 253.338 47.999C252.967 48.9144 252.782 49.9782 252.782 51.1904ZM255.463 41.6162C255.463 41.3997 255.512 41.2266 255.611 41.0967C255.716 40.9668 255.868 40.9019 256.066 40.9019C256.289 40.9019 256.449 40.9668 256.548 41.0967C256.647 41.2266 256.697 41.3997 256.697 41.6162C256.697 41.8389 256.647 42.0151 256.548 42.145C256.449 42.2749 256.289 42.3398 256.066 42.3398C255.868 42.3398 255.716 42.2749 255.611 42.145C255.512 42.0151 255.463 41.8389 255.463 41.6162ZM258.998 41.6162C258.998 41.3997 259.047 41.2266 259.146 41.0967C259.251 40.9668 259.403 40.9019 259.601 40.9019C259.817 40.9019 259.975 40.9668 260.074 41.0967C260.179 41.2266 260.231 41.3997 260.231 41.6162C260.231 41.8389 260.179 42.0151 260.074 42.145C259.975 42.2749 259.817 42.3398 259.601 42.3398C259.403 42.3398 259.251 42.2749 259.146 42.145C259.047 42.0151 258.998 41.8389 258.998 41.6162ZM277.357 51.0884C277.357 52.6037 277.088 53.8747 276.55 54.9014C276.018 55.9281 275.227 56.7012 274.175 57.2207C273.13 57.7402 271.834 58 270.288 58H267.041V44.4365H270.715C272.162 44.4365 273.377 44.6901 274.361 45.1973C275.344 45.7044 276.09 46.4528 276.597 47.4424C277.104 48.4258 277.357 49.6411 277.357 51.0884ZM276.355 51.1255C276.355 49.8328 276.145 48.7536 275.725 47.8877C275.304 47.0218 274.661 46.3724 273.795 45.9395C272.929 45.5003 271.831 45.2808 270.501 45.2808H267.997V57.1558H270.242C272.289 57.1558 273.82 56.6548 274.834 55.6528C275.848 54.6447 276.355 53.1356 276.355 51.1255ZM287.869 58H280.456V44.4365H287.869V45.2993H281.412V50.439H287.507V51.3018H281.412V57.1372H287.869V58ZM300.829 58H299.855L291.839 46.0044H291.793C291.805 46.3384 291.815 46.6785 291.821 47.0249C291.833 47.3651 291.842 47.7176 291.849 48.0825C291.861 48.4412 291.867 48.8123 291.867 49.1958V58H290.958V44.4365H291.941L299.929 56.395H299.976C299.969 56.1229 299.96 55.8075 299.948 55.4487C299.942 55.09 299.932 54.722 299.92 54.3447C299.914 53.9674 299.911 53.6118 299.911 53.2778V44.4365H300.829V58ZM318.66 44.4365L313.65 58H312.704L307.694 44.4365H308.696L312.407 54.4746C312.512 54.7653 312.611 55.0498 312.704 55.3281C312.797 55.6003 312.883 55.8631 312.964 56.1167C313.044 56.3703 313.115 56.6146 313.177 56.8496C313.239 56.6146 313.307 56.3765 313.381 56.1353C313.462 55.8879 313.548 55.6281 313.641 55.356C313.734 55.0776 313.836 54.7808 313.947 54.4653L317.649 44.4365H318.66ZM331.982 51.1997C331.982 52.2326 331.856 53.1758 331.602 54.0293C331.348 54.8828 330.968 55.6188 330.461 56.2373C329.954 56.8558 329.32 57.3351 328.559 57.6753C327.805 58.0155 326.923 58.1855 325.915 58.1855C324.901 58.1855 324.013 58.0155 323.252 57.6753C322.492 57.3351 321.858 56.8558 321.351 56.2373C320.85 55.6126 320.472 54.8735 320.219 54.02C319.965 53.1603 319.838 52.214 319.838 51.1812C319.838 49.8081 320.07 48.599 320.534 47.5537C321.004 46.5085 321.694 45.6921 322.603 45.1045C323.518 44.5169 324.647 44.2231 325.989 44.2231C327.276 44.2231 328.364 44.5046 329.255 45.0674C330.152 45.624 330.829 46.425 331.287 47.4702C331.75 48.5093 331.982 49.7524 331.982 51.1997ZM320.84 51.1904C320.84 52.4027 321.023 53.4727 321.388 54.4004C321.753 55.3219 322.312 56.0425 323.067 56.562C323.821 57.0815 324.774 57.3413 325.924 57.3413C327.087 57.3413 328.043 57.0846 328.791 56.5713C329.539 56.0579 330.093 55.3405 330.452 54.4189C330.81 53.4974 330.99 52.4243 330.99 51.1997C330.99 49.2638 330.566 47.7609 329.719 46.6909C328.878 45.6209 327.634 45.0859 325.989 45.0859C324.833 45.0859 323.871 45.3426 323.104 45.856C322.343 46.3693 321.774 47.0837 321.397 47.999C321.026 48.9144 320.84 49.9782 320.84 51.1904ZM340.972 58L335.99 45.4756H335.944C335.956 45.7044 335.965 45.9456 335.972 46.1992C335.984 46.4466 335.993 46.7064 336 46.9785C336.006 47.2507 336.009 47.5352 336.009 47.832V58H335.1V44.4365H336.547L341.353 56.5156H341.408L346.251 44.4365H347.661V58H346.724V47.7207C346.724 47.4795 346.727 47.2321 346.733 46.9785C346.74 46.7249 346.746 46.4744 346.752 46.2271C346.764 45.9735 346.777 45.7292 346.789 45.4941H346.733L341.733 58H340.972ZM357.393 58H356.438V44.4365H363.859V45.2993H357.393V51.0791H363.507V51.9326H357.393V58ZM374.482 58L372.636 53.2036H366.939L365.056 58H364.082L369.417 44.3901H370.289L375.484 58H374.482ZM372.33 52.3408L370.456 47.2568C370.406 47.127 370.344 46.96 370.27 46.7559C370.202 46.5518 370.128 46.3353 370.047 46.1064C369.973 45.8776 369.899 45.6611 369.825 45.457C369.763 45.6735 369.695 45.89 369.621 46.1064C369.546 46.3229 369.475 46.5332 369.407 46.7373C369.339 46.9352 369.274 47.1146 369.212 47.2754L367.264 52.3408H372.33ZM383.166 45.1045C382.3 45.1045 381.527 45.2529 380.846 45.5498C380.166 45.8405 379.591 46.2549 379.121 46.793C378.651 47.3311 378.292 47.9743 378.044 48.7227C377.797 49.4648 377.673 50.2843 377.673 51.1812C377.673 52.4181 377.868 53.5005 378.258 54.4282C378.647 55.3498 379.232 56.0641 380.011 56.5713C380.797 57.0785 381.774 57.332 382.943 57.332C383.623 57.332 384.242 57.2826 384.798 57.1836C385.355 57.0785 385.871 56.9455 386.348 56.7847V57.6196C385.896 57.7866 385.386 57.9227 384.817 58.0278C384.254 58.133 383.598 58.1855 382.85 58.1855C381.496 58.1855 380.358 57.8949 379.436 57.3135C378.521 56.7321 377.831 55.9157 377.367 54.8643C376.903 53.8128 376.671 52.5851 376.671 51.1812C376.671 50.173 376.817 49.2484 377.107 48.4072C377.398 47.5599 377.822 46.827 378.378 46.2085C378.941 45.5838 379.625 45.1014 380.429 44.7612C381.233 44.4149 382.148 44.2417 383.175 44.2417C383.824 44.2417 384.443 44.3066 385.03 44.4365C385.624 44.5602 386.181 44.7427 386.7 44.9839L386.329 45.8188C385.828 45.5715 385.315 45.3921 384.789 45.2808C384.263 45.1632 383.722 45.1045 383.166 45.1045ZM399.039 58H398.083V51.3203H390.161V58H389.205V44.4365H390.161V50.4482H398.083V44.4365H399.039V58ZM408.752 58L403.771 45.4756H403.724C403.736 45.7044 403.746 45.9456 403.752 46.1992C403.764 46.4466 403.774 46.7064 403.78 46.9785C403.786 47.2507 403.789 47.5352 403.789 47.832V58H402.88V44.4365H404.327L409.133 56.5156H409.188L414.031 44.4365H415.441V58H414.504V47.7207C414.504 47.4795 414.507 47.2321 414.514 46.9785C414.52 46.7249 414.526 46.4744 414.532 46.2271C414.545 45.9735 414.557 45.7292 414.569 45.4941H414.514L409.513 58H408.752ZM427.771 58L425.925 53.2036H420.229L418.345 58H417.371L422.706 44.3901H423.578L428.773 58H427.771ZM425.619 52.3408L423.745 47.2568C423.695 47.127 423.633 46.96 423.559 46.7559C423.491 46.5518 423.417 46.3353 423.336 46.1064C423.262 45.8776 423.188 45.6611 423.114 45.457C423.052 45.6735 422.984 45.89 422.91 46.1064C422.835 46.3229 422.764 46.5332 422.696 46.7373C422.628 46.9352 422.563 47.1146 422.501 47.2754L420.553 52.3408H425.619ZM440.564 58H439.59L431.575 46.0044H431.528C431.541 46.3384 431.55 46.6785 431.556 47.0249C431.569 47.3651 431.578 47.7176 431.584 48.0825C431.596 48.4412 431.603 48.8123 431.603 49.1958V58H430.693V44.4365H431.677L439.665 56.395H439.711C439.705 56.1229 439.695 55.8075 439.683 55.4487C439.677 55.09 439.668 54.722 439.655 54.3447C439.649 53.9674 439.646 53.6118 439.646 53.2778V44.4365H440.564V58ZM454.276 58H453.302L445.287 46.0044H445.24C445.253 46.3384 445.262 46.6785 445.268 47.0249C445.28 47.3651 445.29 47.7176 445.296 48.0825C445.308 48.4412 445.314 48.8123 445.314 49.1958V58H444.405V44.4365H445.389L453.376 56.395H453.423C453.417 56.1229 453.407 55.8075 453.395 55.4487C453.389 55.09 453.38 54.722 453.367 54.3447C453.361 53.9674 453.358 53.6118 453.358 53.2778V44.4365H454.276V58Z" fill="#767676"/>
</svg>
