<svg xmlns="http://www.w3.org/2000/svg" viewBox="0 0 906.72 121.66"><defs><style>.cls-1{fill:#00a9ff;}.cls-2{fill:#231f20;}</style></defs><g id="Layer_2" data-name="Layer 2"><g id="Layer_1-2" data-name="Layer 1"><g id="Path_1" data-name="Path 1"><path class="cls-1" d="M70.41,11.1c1.39.69,2.43,1.39,3.65,2.08.69,0,1,.35,1.73.69L12.31,48.21c0,.35.35.35.7.7,2.08,2.08,4,4,6.07,6.42.34.34,1,.69,1.39.34h0C30.52,50,41.1,43.88,51.16,38.16,61.92,32.09,72.84,26,83.6,19.6a1,1,0,0,1,1.38,0c7.46,4,14.92,7.8,22.55,11.79l23.59,12.49L143.6,50.3c.35,0,.35.34.7.34L99.72,97.47l-8.84-8.15,40.24-39.2c-1.74-1-3.3-2.08-5-3.12-13.18-7.46-26.37-15.26-39.55-22.55a2.25,2.25,0,0,0-2.08,0C69.89,33.3,55.5,42,40.93,50.82,33.13,55.5,25.67,60,18,64.69a1.55,1.55,0,0,1-1.74,0h0L.69,49.08,0,48.39c1.39-.7,2.43-1.39,3.64-2.08l43.88-22.9c7.46-4,14.92-7.8,22.2-11.79a1.68,1.68,0,0,0,.69-.52Z"/></g><g id="Path_3" data-name="Path 3"><path class="cls-1" d="M110.82,50.47c-2.08,1.73-3.64,3.12-5.37,4.68l-26,22.2c-6.07,5-11.79,10.06-17.86,15.26-1,.7-1,1,0,1.74L81.17,114c.34.34.69.34,1,.69-.35.35-.35.69-.7.69-2.08,2.09-4.33,4-6.41,6.07a.65.65,0,0,1-1,0C64.69,112,55.15,102.15,45.79,92.79a.34.34,0,0,0-.35-.35L98.16,50.3a9.77,9.77,0,0,1-3.29-2.43c-2.43-1.39-4.68-3.12-7.11-4.34a1.3,1.3,0,0,0-2.08,0C72.84,52.38,60,61.05,47.17,70.24L32.26,80.3c-.35.35-.69.35-1,.69l-6.07-7.8.69-.69L64.69,47.87C71.46,43.53,78.57,39,85.33,35a2.25,2.25,0,0,1,2.08,0c7.81,5,15.26,9.72,22.89,14.92C110.48,50.12,110.48,50.47,110.82,50.47Z"/></g><g id="Path_4" data-name="Path 4"><path class="cls-1" d="M603.55,21.51H614c.69,0,1.39,1,1.39,1.73C619,35,622.8,46.83,626.1,58.62c.35.69.35,1.39.69,1.74a4.45,4.45,0,0,0,2.43,1.38c.69,0,1.39-1.38,1.74-2.08,0-.69.34-1.39,0-2.08V33a11.75,11.75,0,0,1,10.4-12.14,13.56,13.56,0,0,1,16.48,10.06v.35c3.12,9.19,5.72,18.21,8.84,27.4.35,1.39.7,3.64,3.12,3.3s1.74-2.78,1.74-4.34V23.76c0-2.08.69-2.77,2.77-2.77h6.42c1.74,0,2.08.69,2.08,2.08V34.86a6.45,6.45,0,0,0,.7,2.43c.34-.7.34-1.39.69-2.08,1.39-3.12,3.12-6.07,4.68-9.19A13.75,13.75,0,0,1,700,19.94c7.11-.34,13.88,0,21,0a14.61,14.61,0,0,1,11.1,6.77,33.56,33.56,0,0,1,5.37,23.93,26.38,26.38,0,0,1-7.11,16.13,14.51,14.51,0,0,1-10.4,4.34H702.41a16.83,16.83,0,0,1-15.61-9.19c-1.39-2.43-2.08-4.69-3.64-7.11v4.33c.35,5-1,9.37-6.07,11.45-5.72,2.43-11.79,2.77-16.48-2.08a20.07,20.07,0,0,1-5-8.15c-2.77-8.16-4.68-16.13-7.11-24.29a6.51,6.51,0,0,1-.69-2.42c-.35-1.39-1.39-2.78-3.12-2.43s-2.08,1.73-2.08,3.29V61.92a9.47,9.47,0,0,1-4.69,8.15c-6.41,3.64-15.78,4-20.29-5a96.49,96.49,0,0,1-5-14.57c-2.77-8.85-5-17.52-7.8-26.71C604.25,23.93,603.9,22.89,603.55,21.51Zm107,9.71h-5.37a8.37,8.37,0,0,0-8.5,5,23.5,23.5,0,0,0,.69,21,8.2,8.2,0,0,0,7.46,4.34h11.1c3.12.35,6.07-1.74,7.46-4.34a24.49,24.49,0,0,0,1-20.29,8.28,8.28,0,0,0-8.85-5.72ZM682.81,52.9h.35V41.1h-.35Z"/></g><g id="Path_5" data-name="Path 5"><path class="cls-1" d="M458.21,72.15h-8.49A15.76,15.76,0,0,1,435.49,64a34.45,34.45,0,0,1,1.05-36.42,16.18,16.18,0,0,1,12.14-7.11,189.47,189.47,0,0,1,19.94,0,16.7,16.7,0,0,1,14.22,10.4,34.63,34.63,0,0,1-1,32.43,16.09,16.09,0,0,1-14.91,8.5A77.91,77.91,0,0,1,458.21,72.15Zm0-10.75h6.42a6.5,6.5,0,0,0,5.72-3.13,23.81,23.81,0,0,0,.7-23.58A7.57,7.57,0,0,0,464.28,31H452.49A7.76,7.76,0,0,0,445,35.38a23.92,23.92,0,0,0,.35,21.68,7.65,7.65,0,0,0,7.46,4.34Z"/></g><g id="Path_6" data-name="Path 6"><path class="cls-1" d="M352.59,72.15h-7.8A15.38,15.38,0,0,1,329,62.78a33.86,33.86,0,0,1,1.38-34.34,14.92,14.92,0,0,1,11.8-7.8q10.67-.53,21.33,0c4.34.35,8.5,3.12,11.1,6.76a35.55,35.55,0,0,1,.69,37.46A15.19,15.19,0,0,1,361.78,72C358.66,72.15,355.54,72.15,352.59,72.15Zm.35-10.75h5.72a7,7,0,0,0,6.77-3.3,22.8,22.8,0,0,0,.69-22.55,6.87,6.87,0,0,0-7.11-4h-11.1a8.67,8.67,0,0,0-8.85,5.72c-2.77,6.42-2.42,13.18.35,19.6a8.27,8.27,0,0,0,8.5,5,16,16,0,0,1,5-.52Z"/></g><g id="Path_7" data-name="Path 7"><path class="cls-1" d="M401.15,72.15H386.93c-1.73,0-2.43-.69-2.43-2.43V64.34c0-2.08.7-2.77,2.78-2.77h23.59a4.62,4.62,0,0,0,5.37-4v-.69a4.44,4.44,0,0,0-3.29-5H387.63c-2.43,0-3.13-.7-2.78-2.78V43c0-2.08.7-2.43,2.43-2.43h23.93a4.47,4.47,0,0,0,5-4V35.21a4.78,4.78,0,0,0-4.68-4.69H387.28c-2.08,0-3.12-.69-2.78-2.77V21.68c0-1.39.35-2.08,2.09-2.08h28.09a14.33,14.33,0,0,1,13.53,13.87,18,18,0,0,1-2.43,11.1,2.16,2.16,0,0,0,.35,2.43,18.15,18.15,0,0,1-1,18.91A12.11,12.11,0,0,1,415,71.28,77.22,77.22,0,0,1,401.15,72.15Z"/></g><g id="Path_8" data-name="Path 8"><path class="cls-1" d="M765.19,52.55l12.49,4.68c2.08.7,4.34,1.74,6.42,2.43a2.32,2.32,0,0,1,1.39,1.74V71.8L753.05,59V69c0,2.08-.69,2.77-2.77,2.77h-6.77a2.44,2.44,0,0,1-1.73-1.39,176.72,176.72,0,0,1,.35-19.25,10.86,10.86,0,0,1,12.14-10.4h13.87c3.3,0,5.38-1.74,5.38-4.69a4.81,4.81,0,0,0-4.34-5h-25c-2.08,0-2.78-.69-2.78-2.77V22.2c0-1.39.35-2.08,2.08-2.08h28.27a13.68,13.68,0,0,1,12.84,11.45,17.88,17.88,0,0,1-2.43,13.87,12.58,12.58,0,0,1-10.06,5.38h-6.76Z"/></g><g id="Path_9" data-name="Path 9"><path class="cls-1" d="M303.86,52.55l15.78,6.07c5.72,2.43,4.68,1,4.68,6.76v6.77L291.54,59.31V69.37c0,2.43-.69,3.13-3.12,3.13h-6.07a1.84,1.84,0,0,1-2.08-2.09V52.2a11.8,11.8,0,0,1,11.79-11.1h14.23c3.64,0,5.37-1.73,5.37-4.68,0-3.29-2.08-5-5.72-5H283.05c-3.13,0-3.13,0-3.13-3.29V22.72c.7-1.73,1.39-2.08,2.78-2.08h28.1a13,13,0,0,1,12.14,8.84A16.55,16.55,0,0,1,321.2,46c-2.43,3.3-6.07,5.72-10.06,5.38h-6.76Z"/></g><g id="Path_10" data-name="Path 10"><path class="cls-1" d="M859.37,72.15H845.15c-1.74,0-2.78-.35-2.43-2.43V63.65c0-2.08.69-2.43,2.43-2.43h23.93a4.49,4.49,0,0,0,5-4v-1a4.74,4.74,0,0,0-4-5H854.51a12.88,12.88,0,0,1-14.22-11.44,17.72,17.72,0,0,1,3.3-15.27,13,13,0,0,1,9.71-4.33h27.4c1.74,0,2.43.69,2.43,2.43v6.07c0,1.73-.69,2.42-2.43,2.42H856.42a4.4,4.4,0,0,0-5,4.34,5.86,5.86,0,0,0,.35,2.43,4.83,4.83,0,0,0,4.68,3.12h15.26c7.46-.35,13.53,5.38,14.22,12.83,1.05,4.69-.34,9.72-3.29,13.88a11.12,11.12,0,0,1-9.37,4.68c-4.68-.17-9.54-.17-13.87-.17Z"/></g><g id="Path_11" data-name="Path 11"><path class="cls-1" d="M176.73,72.15H162.51c-1.74,0-2.43-.69-2.43-2.43V63.65c0-2.08.69-2.43,2.43-2.43h23.93c3.3,0,5.38-1.73,5.38-5,0-3.12-1.74-4.68-5-4.68-4.68,0-9.37-.35-14.22,0-9.37.69-14.57-6.07-15.26-14.57a16,16,0,0,1,3.12-11.1,13.39,13.39,0,0,1,10.75-5.37h27.4c1.74,0,2.43.69,2.43,2.42v5.73c0,2.08-.69,2.77-2.77,2.77H174.3a4.75,4.75,0,0,0-5,4v.35a4.51,4.51,0,0,0,3.3,5.37h16.3c6.76-.69,12.49,4,13.88,10.76a21.91,21.91,0,0,1-.7,12.48,12.2,12.2,0,0,1-12.14,8.16C185.4,72.15,181.07,72.15,176.73,72.15Z"/></g><g id="Path_12" data-name="Path 12"><path class="cls-1" d="M802,33.3l32.78-12.83v7.45c0,5.73.69,4.34-4.33,6.42-8.16,3.64-16.48,7.11-24.63,10.41-.7.34-1.39,1.38-2.08,2.08.69.69,1.38,1.73,2.08,2.08,8.84,4,17.86,7.8,27.05,11.79a2.79,2.79,0,0,1,2.08,3.3v9.36L801.79,60.53v9.19c0,2.08-.7,3.12-2.78,3.12H792.6c-1.39,0-2.08-.34-2.08-2.08V22.89a1.84,1.84,0,0,1,2.08-2.08h7.11c1.73,0,2.08.7,2.08,2.08V30.7A8,8,0,0,1,802,33.3Z"/></g><g id="Path_13" data-name="Path 13"><path class="cls-1" d="M568.17,72.15H557.42A16.22,16.22,0,0,1,544.24,65a27.08,27.08,0,0,1-5-15.78A35.62,35.62,0,0,1,543.54,29a17.2,17.2,0,0,1,15.61-8.49h21.68c2.08,0,2.78.69,2.78,2.77v6.07c0,1.73-.7,2.08-2.43,2.08H561.23a8.23,8.23,0,0,0-8.15,5,22.66,22.66,0,0,0,.7,21.33,7.32,7.32,0,0,0,7.45,4h19.26c2.42,0,3.29.7,3.12,3.12v5.38c0,1.74-.7,2.43-2.43,2.43A113.27,113.27,0,0,0,568.17,72.15Z"/></g><g id="Path_14" data-name="Path 14"><path class="cls-1" d="M222.52,20.47h11.79A14,14,0,0,1,249.57,33.3v2.08a15.11,15.11,0,0,1-3.12,10.75,12.58,12.58,0,0,1-10.06,5.38H226.33c-6.41,0-9.19,2.43-8.84,8.85v9.36c0,1.74-.7,2.08-2.08,2.08h-6.77c-1.39,0-2.08-.34-2.08-2.08,0-6.07,0-12.14.35-18.21a11.54,11.54,0,0,1,11.79-11.1h14.22c3.64,0,5.38-1.73,5.38-4.68,0-3.3-1.74-5-5.38-5H209.68c-2.08,0-3.12-.7-2.77-2.78V21.85c0-1.73.69-2.08,2.08-2.08A86.5,86.5,0,0,0,222.52,20.47Z"/></g><g id="Path_15" data-name="Path 15"><path class="cls-1" d="M496.2,51.51V33.65c0-2.08-.7-2.78-2.78-2.78h-6.76c-1.39,0-2.08-.35-2.08-2.08V22a1.84,1.84,0,0,1,2.08-2.09h30c1.39,0,2.43.35,2.08,2.09v6.76a1.84,1.84,0,0,1-2.08,2.08h-5.72c-3.64,0-3.64,0-3.64,3.64V68.85c0,2.43-.7,3.3-3.13,3.13h-5c-2.43.34-3.3-.7-3.13-3.13C496.54,63.3,496.2,57.58,496.2,51.51Z"/></g><g id="Path_16" data-name="Path 16"><path class="cls-1" d="M534,46.48V69.37c0,2.09-.35,2.78-2.78,2.78h-6.76a1.84,1.84,0,0,1-2.08-2.08V22.2a1.84,1.84,0,0,1,2.08-2.08h6.76c2.08,0,2.43.69,2.43,2.43C534,30.52,534,38.68,534,46.48Z"/></g><path class="cls-1" d="M897.52,18.38a9.14,9.14,0,0,1-9.19-9.19,9.2,9.2,0,0,1,18.39,0A9.14,9.14,0,0,1,897.52,18.38Zm0-17.51A8.4,8.4,0,0,0,889,9.37a8.5,8.5,0,0,0,17,0A8.4,8.4,0,0,0,897.52.87Z"/><path class="cls-1" d="M893.88,13.35V5.2h3.64a2.59,2.59,0,0,1,1.74.35c.35.35.69.35,1,.69s.35.7.35,1.39A1.81,1.81,0,0,1,900,9a2.61,2.61,0,0,1-1.73.69c.35,0,.35.35.69.35l1,1,1.39,2.43H900l-1-1.74a5,5,0,0,1-.69-1l-.7-.69-.34-.35H895.1v3.64ZM894.75,9h3.47c.35,0,.35-.35.69-.35,0-.35.35-.35.35-.69a1.26,1.26,0,0,0-.35-1c-.34-.35-.69-.35-1.39-.35h-2.77V9Z"/><path class="cls-2" d="M181.53,114.91A13.29,13.29,0,0,1,170,121.36c-7.76,0-13.41-5.69-13.41-13,0-6.88,5.65-12.63,13.41-12.63a13.14,13.14,0,0,1,11.65,6.19l-5.06,3a7.47,7.47,0,0,0-13.95,3.49,7.3,7.3,0,0,0,7.36,7.4,7.21,7.21,0,0,0,6.52-3.75Z"/><path class="cls-2" d="M206.33,105.44a8.88,8.88,0,0,1-4.4,8l5.1,7.47H199.6l-3.72-6.16h-4.37v6.16h-6V96.15h12C202.55,96.15,206.33,100.05,206.33,105.44Zm-14.82-3.75v7.54h5.14a3.77,3.77,0,0,0,0-7.54Z"/><path class="cls-2" d="M230.26,96.15v5.54h-13V106h10.85v5.17H217.26v4.26h13v5.54h-19V96.15Z"/><path class="cls-2" d="M253.57,117.06H241.63L240,120.92h-6.34l10.6-24.77h6.66l10.64,24.77h-6.38Zm-2.07-4.88-3.86-9.25-3.94,9.25Z"/><path class="cls-2" d="M283,101.69h-8.78v19.23h-6V101.69H259.4V96.15H283Z"/><path class="cls-2" d="M293.05,120.92h-6V96.15h6Z"/><path class="cls-2" d="M322.77,120.92h-6l-12.53-15.15v15.15h-6V96.15h6l12.53,15.12V96.15h6Z"/><path class="cls-2" d="M351.33,101.14l-5.17,2.62c-1.24-1.56-3.17-2.44-6-2.44a7,7,0,0,0-7.36,7.14,7.3,7.3,0,0,0,7.43,7.32,8.76,8.76,0,0,0,6.08-2.07V111.3h-7.54v-4.59h12.82v9.18a14.19,14.19,0,0,1-11.32,5.47c-8.2,0-13.48-6.16-13.48-12.82,0-6.89,5.65-12.82,13.44-12.82A13.61,13.61,0,0,1,351.33,101.14Z"/><path class="cls-2" d="M383.2,117.06H371.25l-1.64,3.86h-6.34l10.6-24.77h6.67l10.63,24.77H384.8Zm-2.08-4.88-3.86-9.25-3.93,9.25Z"/><path class="cls-2" d="M427.63,114.91a13.28,13.28,0,0,1-11.58,6.45c-7.76,0-13.4-5.69-13.4-13,0-6.88,5.64-12.63,13.4-12.63a13.17,13.17,0,0,1,11.66,6.19l-5.07,3a7.47,7.47,0,0,0-13.95,3.49,7.3,7.3,0,0,0,7.36,7.4,7.21,7.21,0,0,0,6.52-3.75Z"/><path class="cls-2" d="M454.88,108.54a12.79,12.79,0,1,1-12.79-12.82A12.84,12.84,0,0,1,454.88,108.54Zm-20.11,0a7.29,7.29,0,1,0,7.32-7.25A7.29,7.29,0,0,0,434.77,108.54Z"/><path class="cls-2" d="M489.33,120.92h-6V108.28l-5.93,12.64h-6.67l-5.94-12.64v12.64h-6V96.15h6.63l8.63,18.18,8.6-18.18h6.66Z"/><path class="cls-2" d="M525.35,120.92h-6V108.28l-5.93,12.64h-6.67l-5.94-12.64v12.64h-6V96.15h6.63l8.63,18.18,8.6-18.18h6.66Z"/><path class="cls-2" d="M553.51,108.21c0,8.19-5.17,13.15-12.09,13.15s-11.81-5-11.81-13.15V96.15h6v12.06c0,4.77,2,7.61,5.83,7.61s6-2.84,6-7.61V96.15h6Z"/><path class="cls-2" d="M582,120.92h-6l-12.53-15.15v15.15h-6V96.15h6L576,111.27V96.15h6Z"/><path class="cls-2" d="M593.17,120.92h-6V96.15h6Z"/><path class="cls-2" d="M620.85,101.69h-8.78v19.23h-6V101.69h-8.78V96.15h23.6Z"/><path class="cls-2" d="M640.3,111.56v9.36h-6v-9.36L623.73,96.15h6.88l6.74,10.13L644,96.15h7Z"/><path class="cls-2" d="M687.8,108.54A12.79,12.79,0,1,1,675,95.72,12.84,12.84,0,0,1,687.8,108.54Zm-20.11,0a7.29,7.29,0,1,0,7.32-7.25A7.29,7.29,0,0,0,667.69,108.54Z"/><path class="cls-2" d="M710.7,101.69h-13v5.68h10.86v5.5H697.7v8h-6V96.15h19Z"/><path class="cls-2" d="M754.52,120.92h-6V108.28l-5.94,12.64h-6.66L730,108.28v12.64h-6V96.15h6.63l8.63,18.18,8.6-18.18h6.66Z"/><path class="cls-2" d="M778.49,117.06h-12l-1.64,3.86h-6.34l10.6-24.77h6.67l10.63,24.77h-6.37Zm-2.08-4.88-3.86-9.25-3.93,9.25Z"/><path class="cls-2" d="M804.93,106.13l10.34,14.79h-7.76l-6.77-10.23-4.26,4.66v5.57h-6V96.15h6V107L806,96.15h7.5Z"/><path class="cls-2" d="M838,96.15v5.54H825V106h10.86v5.17H825v4.26h13v5.54H819V96.15Z"/><path class="cls-2" d="M863.6,105.44a8.88,8.88,0,0,1-4.4,8l5.1,7.47h-7.43l-3.72-6.16h-4.37v6.16h-6V96.15h12C859.82,96.15,863.6,100.05,863.6,105.44Zm-14.82-3.75v7.54h5.14a3.77,3.77,0,0,0,0-7.54Z"/><path class="cls-2" d="M886.81,104h-5.94c0-1.24-1.46-2.91-4-2.91-1.78,0-4,.8-4,2.22,0,1.2,1.64,1.68,5.14,2.59,3.89,1,9.39,2.33,9.39,7.79,0,4.74-4.15,7.69-9.94,7.69-7.76,0-11-5.25-11-9.11h5.94s.47,3.93,5.39,3.93c2.66,0,3.64-1.12,3.64-2.18,0-1.57-2.08-2.11-4.37-2.66-3.72-.87-10.23-2.26-10.23-7.76,0-4.51,4.44-7.86,10.09-7.86C883.38,95.72,886.81,100.12,886.81,104Z"/></g></g></svg>