<?xml version="1.0" encoding="utf-8"?>
<!-- Generator: Adobe Illustrator 23.1.0, SVG Export Plug-In . SVG Version: 6.00 Build 0)  -->
<svg version="1.1" id="Layer_1" xmlns="http://www.w3.org/2000/svg" xmlns:xlink="http://www.w3.org/1999/xlink" x="0px" y="0px"
	 viewBox="0 0 979.6 255.8" style="enable-background:new 0 0 979.6 255.8;" xml:space="preserve">
<style type="text/css">
	.st0{fill:#FFFFFF;}
	.st1{display:none;}
	.st2{display:inline;fill:#4428AA;}
	.st3{display:inline;}
	.st4{fill:#4428AA;}
</style>
<g>
	<path class="st0" d="M53.4,18.6c-1.4,0-2.4,1.2-2.4,2.5s0,2.6,0,3.9c0,48.3,0,96.7,0,145c0,3.8-0.5,7.6-1.1,11.4
		c-0.7,4.4-4.1,5.9-8.1,5.9c-4.1,0-7.2-1.7-7.9-6.1c-0.5-3.4-1-6.9-1-10.4c-0.1-36.3,0-72.7,0-109v-3.2c0-1.4-1.1-2.5-2.5-2.5H21
		c-1.4,0-2.5,1.1-2.5,2.5v141.8c0,1.3,1,2.4,2.2,2.5c0.4,0,0.9,0.1,1.3,0.1c31.7,0,63.3,0.1,95,0c20.8-0.1,39.3-6.2,54.1-21.6
		c33.2-34.5,26-99.1-22.4-119.9c-11.2-4.8-23.2-5.7-35.2-5.8c-11-0.1-22,0-33-0.1c-3.3,0-6.7-0.4-9.9-1c-4.6-0.8-6.9-3.8-6.7-8.5
		c0.1-4.5,2.6-7,6.8-8c1.3-0.3,2.6-0.7,3.9-0.7c22.5-0.1,45-2.2,67.2,3c33.8,7.9,55.2,29.5,64.1,62.5c9.5,35.3,1.9,67-24.1,93.4
		c-16.1,16.4-36.6,23.9-59,24.4c-37.1,0.8-74.3,0.4-111.5,0.3c-7.4,0-9.8-2.3-11-9.5c-0.3-2-0.3-4-0.3-6c0-51,0-102,0-153
		c0-1.3,0-2.7,0-4c0.4-7.4,2.4-10,9.7-10.8c6.3-0.7,12.6-0.4,19-0.6c0.6,0,1.3,0,1.9-0.1c1.3-0.1,2.4-1.2,2.4-2.6
		c0-7.1-0.1-13.9,0-20.8C33.1,3.5,35.9,0.1,46,0.1c28.7,0,57.4-0.5,86,0.9c29.9,1.5,57.1,11.3,79,32.8
		c29.2,28.6,41.4,63.8,38.3,104.2c-2.9,36.9-18.7,67.2-47.8,90.4c-17.6,14-37.7,21.7-59.8,24.2c-10.2,1.2-20.6,1.9-30.9,2
		c-20.8,0.3-41.7,0.1-62.5,0c-3,0-6-0.5-8.9-1c-4.3-0.8-6.3-3.9-6.3-7.9c0-3.8,1.5-7.3,5.9-8.1c3.3-0.6,6.6-1.1,9.9-1.1
		c22.8-0.1,45.7,0.3,68.5-0.1c22.7-0.4,44.9-3.6,64.4-16.6c35.4-23.6,51.4-57.1,49.5-99.2c-1.7-37.3-18.5-66.4-50-86.8
		c-15.4-10-32.8-14.1-50.7-14.9C104.8,18.3,79.1,18.8,53.4,18.6L53.4,18.6z"/>
	<g>
		<path class="st0" d="M388.9,135v15.6h-33.5V255h-19.5V150.6h-33.3V135H388.9z"/>
		<path class="st0" d="M564.2,135l-29.9,120h-23.8l-25.3-92.8L459.9,255h-23.8l-29.9-120h21.3l20.7,97.6l26.4-97.6H496l26.3,97.6
			L543,135H564.2z"/>
		<path class="st0" d="M609.7,135v120h-19.4V135H609.7z"/>
		<path class="st0" d="M732.3,145c9.7,7.5,16.3,17.6,19.7,30.4h-20.6c-2.8-7.3-7.3-13-13.5-17.3s-13.7-6.4-22.7-6.4
			c-7.1,0-13.5,1.8-19.1,5.3s-10,8.5-13.3,15c-3.2,6.5-4.8,14.1-4.8,22.9c0,8.6,1.6,16.2,4.8,22.7s7.7,11.5,13.3,15s12,5.3,19.1,5.3
			c9,0,16.5-2.1,22.7-6.4s10.7-9.9,13.5-17.1H752c-3.4,12.8-10,22.9-19.7,30.3s-22,11.1-36.7,11.1c-11.3,0-21.4-2.6-30.1-7.7
			c-8.7-5.2-15.5-12.4-20.2-21.6c-4.8-9.2-7.1-19.8-7.1-31.7c0-11.9,2.4-22.5,7.1-31.7c4.8-9.2,11.5-16.5,20.2-21.7
			s18.8-7.8,30.1-7.8C710.3,133.8,722.5,137.5,732.3,145z"/>
		<path class="st0" d="M799.6,150.6V187h44.2v15h-44.2v37.2h49.3V255h-68.7V135h68.7v15.6H799.6z"/>
		<path class="st0" d="M972.2,226.5c-4.9,9-12.1,16-21.6,21s-20.8,7.5-33.9,7.5h-40.1V135h40.1c13.1,0,24.5,2.5,33.9,7.4
			c9.5,4.9,16.7,11.9,21.6,20.8c4.9,9,7.4,19.5,7.4,31.6C979.6,206.9,977.2,217.5,972.2,226.5z M948.4,226.3
			c7.7-7.5,11.6-18,11.6-31.4c0-13.5-3.9-24-11.6-31.5s-18.8-11.2-33.1-11.2h-19.2v85.3h19.2C929.6,237.5,940.6,233.7,948.4,226.3z"
			/>
	</g>
	<path class="st0" d="M317.8,78c7.4-3.7,14.8-7.5,22.3-11.1c1.6-0.7,3.5-0.9,5.3-0.9c195.8,0,391.7,0,587.5,0c2.4,0,4.9,0.7,7.1,1.7
		c7,3.3,13.9,6.8,20.5,11c-214.2,0-428.4,0-642.6,0C317.9,78.5,317.8,78.3,317.8,78z"/>
</g>
<g class="st1">
	<path class="st2" d="M53.4,18.6c-1.4,0-2.4,1.2-2.4,2.5s0,2.6,0,3.9c0,48.3,0,96.7,0,145c0,3.8-0.5,7.6-1.1,11.4
		c-0.7,4.4-4.1,5.9-8.1,5.9c-4.1,0-7.2-1.7-7.9-6.1c-0.5-3.4-1-6.9-1-10.4c-0.1-36.3,0-72.7,0-109v-3.2c0-1.4-1.1-2.5-2.5-2.5H21
		c-1.4,0-2.5,1.1-2.5,2.5v141.8c0,1.3,1,2.4,2.2,2.5c0.4,0,0.9,0.1,1.3,0.1c31.7,0,63.3,0.1,95,0c20.8-0.1,39.3-6.2,54.1-21.6
		c33.2-34.5,26-99.1-22.4-119.9c-11.2-4.8-23.2-5.7-35.2-5.8c-11-0.1-22,0-33-0.1c-3.3,0-6.7-0.4-9.9-1c-4.6-0.8-6.9-3.8-6.7-8.5
		c0.1-4.5,2.6-7,6.8-8c1.3-0.3,2.6-0.7,3.9-0.7c22.5-0.1,45-2.2,67.2,3c33.8,7.9,55.2,29.5,64.1,62.5c9.5,35.3,1.9,67-24.1,93.4
		c-16.1,16.4-36.6,23.9-59,24.4c-37.1,0.8-74.3,0.4-111.5,0.3c-7.4,0-9.8-2.3-11-9.5c-0.3-2-0.3-4-0.3-6c0-51,0-102,0-153
		c0-1.3,0-2.7,0-4c0.4-7.4,2.4-10,9.7-10.8c6.3-0.7,12.6-0.4,19-0.6c0.6,0,1.3,0,1.9-0.1c1.3-0.1,2.4-1.2,2.4-2.6
		c0-7.1-0.1-13.9,0-20.8C33.1,3.5,35.9,0.1,46,0.1c28.7,0,57.4-0.5,86,0.9c29.9,1.5,57.1,11.3,79,32.8
		c29.2,28.6,41.4,63.8,38.3,104.2c-2.9,36.9-18.7,67.2-47.8,90.4c-17.6,14-37.7,21.7-59.8,24.2c-10.2,1.2-20.6,1.9-30.9,2
		c-20.8,0.3-41.7,0.1-62.5,0c-3,0-6-0.5-8.9-1c-4.3-0.8-6.3-3.9-6.3-7.9c0-3.8,1.5-7.3,5.9-8.1c3.3-0.6,6.6-1.1,9.9-1.1
		c22.8-0.1,45.7,0.3,68.5-0.1c22.7-0.4,44.9-3.6,64.4-16.6c35.4-23.6,51.4-57.1,49.5-99.2c-1.7-37.3-18.5-66.4-50-86.8
		c-15.4-10-32.8-14.1-50.7-14.9C104.8,18.3,79.1,18.8,53.4,18.6L53.4,18.6z"/>
	<g class="st3">
		<path class="st4" d="M388.9,135v15.6h-33.5V255h-19.5V150.6h-33.3V135H388.9z"/>
		<path class="st4" d="M564.2,135l-29.9,120h-23.8l-25.3-92.8L459.9,255h-23.8l-29.9-120h21.3l20.7,97.6l26.4-97.6H496l26.3,97.6
			L543,135H564.2z"/>
		<path class="st4" d="M609.7,135v120h-19.4V135H609.7z"/>
		<path class="st4" d="M732.3,145c9.7,7.5,16.3,17.6,19.7,30.4h-20.6c-2.8-7.3-7.3-13-13.5-17.3s-13.7-6.4-22.7-6.4
			c-7.1,0-13.5,1.8-19.1,5.3s-10,8.5-13.3,15c-3.2,6.5-4.8,14.1-4.8,22.9c0,8.6,1.6,16.2,4.8,22.7s7.7,11.5,13.3,15s12,5.3,19.1,5.3
			c9,0,16.5-2.1,22.7-6.4s10.7-9.9,13.5-17.1H752c-3.4,12.8-10,22.9-19.7,30.3s-22,11.1-36.7,11.1c-11.3,0-21.4-2.6-30.1-7.7
			c-8.7-5.2-15.5-12.4-20.2-21.6c-4.8-9.2-7.1-19.8-7.1-31.7c0-11.9,2.4-22.5,7.1-31.7c4.8-9.2,11.5-16.5,20.2-21.7
			s18.8-7.8,30.1-7.8C710.3,133.8,722.5,137.5,732.3,145z"/>
		<path class="st4" d="M799.6,150.6V187h44.2v15h-44.2v37.2h49.3V255h-68.7V135h68.7v15.6H799.6z"/>
		<path class="st4" d="M972.2,226.5c-4.9,9-12.1,16-21.6,21s-20.8,7.5-33.9,7.5h-40.1V135h40.1c13.1,0,24.5,2.5,33.9,7.4
			c9.5,4.9,16.7,11.9,21.6,20.8c4.9,9,7.4,19.5,7.4,31.6C979.6,206.9,977.2,217.5,972.2,226.5z M948.4,226.3
			c7.7-7.5,11.6-18,11.6-31.4c0-13.5-3.9-24-11.6-31.5s-18.8-11.2-33.1-11.2h-19.2v85.3h19.2C929.6,237.5,940.6,233.7,948.4,226.3z"
			/>
	</g>
	<path class="st2" d="M317.8,78c7.4-3.7,14.8-7.5,22.3-11.1c1.6-0.7,3.5-0.9,5.3-0.9c195.8,0,391.7,0,587.5,0c2.4,0,4.9,0.7,7.1,1.7
		c7,3.3,13.9,6.8,20.5,11c-214.2,0-428.4,0-642.6,0C317.9,78.5,317.8,78.3,317.8,78z"/>
</g>
</svg>
